<svg xmlns="http://www.w3.org/2000/svg" width="705" height="576" fill="none"><g filter="url(#a)"><path fill="#6663E9" fill-rule="evenodd" d="M483.226 56c22.839 10.08 38.779 32.926 38.779 59.495v291.696c0 35.898-29.101 65-65 65H165.309c-35.898 0-65-29.102-65-65V115.495c0-26.57 15.941-49.415 38.78-59.495H-11c-38.66 0-70 31.34-70 70v316c0 38.66 31.34 70 70 70h586c38.66 0 70-31.34 70-70V126c0-38.66-31.34-70-70-70h-91.774Z" clip-rule="evenodd"/></g><defs><filter id="a" width="846" height="576" x="-141" y="0" color-interpolation-filters="sRGB" filterUnits="userSpaceOnUse"><feFlood flood-opacity="0" result="BackgroundImageFix"/><feColorMatrix in="SourceAlpha" result="hardAlpha" values="0 0 0 0 0 0 0 0 0 0 0 0 0 0 0 0 0 0 127 0"/><feOffset dy="4"/><feGaussianBlur stdDeviation="30"/><feColorMatrix values="0 0 0 0 0 0 0 0 0 0 0 0 0 0 0 0 0 0 0.05 0"/><feBlend in2="BackgroundImageFix" result="effect1_dropShadow_8_281"/><feBlend in="SourceGraphic" in2="effect1_dropShadow_8_281" result="shape"/></filter></defs></svg>