<svg xmlns="http://www.w3.org/2000/svg" width="177" height="61" fill="none"><path fill="#6663E9" d="M0 20.307v11.28c3.838-.003 7.64.755 11.186 2.229a29.188 29.188 0 0 1 9.482 6.362A29.33 29.33 0 0 1 27 49.699a29.43 29.43 0 0 1 2.218 11.23h11.225a40.748 40.748 0 0 0-11.857-28.71A40.402 40.402 0 0 0 0 20.307ZM56.132 0H38.344A72.338 72.338 0 0 1 60.67 22.419V4.555c0-1.208-.48-2.367-1.33-3.221A4.53 4.53 0 0 0 56.13 0Z"/><path fill="#6663E9" d="M11.176 0H0v10.156a50.505 50.505 0 0 1 35.736 14.887A50.938 50.938 0 0 1 50.56 60.93h10.112V49.706a62.206 62.206 0 0 0-17.074-32.56A61.774 61.774 0 0 0 11.176 0ZM88.183 6.707H81.06v36.06h7.124V6.708ZM114.378 22.33a12.098 12.098 0 0 0-4.084-2.458 15.064 15.064 0 0 0-10.022 0c-1.511.54-2.9 1.375-4.086 2.458a11.545 11.545 0 0 0-2.73 3.839 13.064 13.064 0 0 0 0 10.016 11.494 11.494 0 0 0 2.73 3.848 12.015 12.015 0 0 0 4.082 2.457 15.04 15.04 0 0 0 10.022 0 12.023 12.023 0 0 0 4.085-2.457 11.525 11.525 0 0 0 2.73-3.848 13.078 13.078 0 0 0 0-10.016 11.56 11.56 0 0 0-2.727-3.839Zm-4.892 13.094a6.265 6.265 0 0 1-8.408 0 6.766 6.766 0 0 1-1.499-4.25c0-1.546.529-3.046 1.499-4.248a6.265 6.265 0 0 1 8.408 0 6.77 6.77 0 0 1 0 8.498ZM139.954 22.64h-.089a7.294 7.294 0 0 0-1.14-1.264 8.278 8.278 0 0 0-1.709-1.17 10.724 10.724 0 0 0-5.036-1.192 9.318 9.318 0 0 0-4.416 1.026 10.482 10.482 0 0 0-3.302 2.696 12.262 12.262 0 0 0-2.09 3.862 14.04 14.04 0 0 0-.736 4.49 13.826 13.826 0 0 0 .808 4.81 11.052 11.052 0 0 0 2.293 3.794 10.366 10.366 0 0 0 3.591 2.477c1.477.604 3.059.904 4.654.882a9.764 9.764 0 0 0 3.442-.691 6.706 6.706 0 0 0 3.064-2.362h.096v2.245a5.63 5.63 0 0 1-1.544 4.077 6.444 6.444 0 0 1-4.822 1.604 9.786 9.786 0 0 1-4.012-.812 14.868 14.868 0 0 1-3.492-2.193l-3.942 5.908a13.724 13.724 0 0 0 5.51 2.696 26.95 26.95 0 0 0 6.08.69c4.496 0 7.844-1.136 10.044-3.41 2.2-2.273 3.301-5.604 3.302-9.992V19.587h-6.546l-.008 3.052Zm-.428 10.564a5.58 5.58 0 0 1-1.212 1.814 6.156 6.156 0 0 1-1.828 1.263 5.509 5.509 0 0 1-4.488 0 6.28 6.28 0 0 1-1.806-1.263 5.635 5.635 0 0 1-1.216-6.139 5.631 5.631 0 0 1 1.216-1.827 6.32 6.32 0 0 1 1.806-1.265 5.527 5.527 0 0 1 4.488 0c.68.308 1.3.736 1.828 1.265a5.666 5.666 0 0 1 1.212 6.152ZM173.272 22.33a12.098 12.098 0 0 0-4.084-2.458 15.064 15.064 0 0 0-10.022 0c-1.511.54-2.9 1.375-4.086 2.458a11.546 11.546 0 0 0-2.73 3.839 13.058 13.058 0 0 0 0 10.016 11.49 11.49 0 0 0 2.73 3.848 12.007 12.007 0 0 0 4.086 2.457 15.04 15.04 0 0 0 10.022 0 12.019 12.019 0 0 0 4.084-2.457 11.49 11.49 0 0 0 2.73-3.848 13.06 13.06 0 0 0 0-10.016 11.546 11.546 0 0 0-2.73-3.839Zm-4.892 13.094a6.266 6.266 0 0 1-4.204 1.62 6.266 6.266 0 0 1-4.204-1.62 6.772 6.772 0 0 1 0-8.498 6.266 6.266 0 0 1 4.204-1.621c1.553 0 3.05.577 4.204 1.62a6.766 6.766 0 0 1 0 8.499Z"/></svg>