<svg xmlns="http://www.w3.org/2000/svg" width="154" height="38" fill="none"><path fill="#6663E9" d="M0 2.627V1.165h.58l4.221.104c2.463.035 5.1.035 7.915 0l4.854-.104h.633V4.09h-2.638c-2.462.035-3.8.156-4.01.365-.07.035-.106 4.893-.106 14.573v14.468l.106.105c.035.034.14.104.316.209.387.139 2.252.174 5.593.104.352-.035.598-.052.739-.052 3.412-.314 5.733-1.689 6.965-4.127.738-1.357 1.266-3.412 1.582-6.163.07-.731.123-1.149.159-1.253v-.262h2.638v.262c-.035.07-.282 2.437-.739 7.103-.457 4.7-.703 7.086-.739 7.156v.261H0v-2.925h1.477c2.463 0 3.764-.122 3.905-.366V4.455C5.24 4.212 3.94 4.09 1.477 4.09H0V2.627ZM51.443.068c4.327-.383 8.284.853 11.872 3.708.773.592 1.688 1.498 2.743 2.716 2.322 2.856 3.746 6.303 4.274 10.342.14 1.15.158 2.507.053 4.074a.98.98 0 0 0-.053.314c-.493 4.109-1.97 7.625-4.432 10.55-3.13 3.657-6.965 5.711-11.502 6.164a18.493 18.493 0 0 1-4.169-.157c-4.467-.731-8.142-2.96-11.027-6.686-1.9-2.507-3.113-5.345-3.64-8.513-.176-.87-.264-2.037-.264-3.5 0-1.393.105-2.629.316-3.708.387-2.298 1.144-4.405 2.27-6.32a25.377 25.377 0 0 1 1.74-2.56c1.09-1.253 2.023-2.158 2.797-2.716C45.059 1.617 48.066.381 51.443.068Zm2.902 2.664c-1.02-.105-1.847-.122-2.48-.052-3.2.383-5.698 2.054-7.492 5.014-.211.348-.405.714-.58 1.097-.88 1.81-1.443 4.056-1.689 6.737-.14 1.184-.158 2.908-.053 5.171.036.279.053.488.053.627.246 2.925.81 5.38 1.688 7.365 1.548 3.447 3.887 5.571 7.018 6.372.14.035.299.07.475.105a7.809 7.809 0 0 0 3.113 0c3.2-.627 5.628-2.647 7.28-6.06l.212-.417c.88-1.985 1.442-4.44 1.688-7.365.141-1.253.159-2.994.053-5.223a4.272 4.272 0 0 1-.053-.575c-.246-3.203-1.002-5.815-2.268-7.834-1.689-2.786-4.01-4.44-6.965-4.962ZM93.775.068c.915-.07 1.812-.07 2.691 0 2.92.279 5.399 1.462 7.439 3.552.282.243.44.383.475.418l1.636-1.985c.985-1.15 1.565-1.81 1.741-1.985.035-.035.229-.052.58-.052.282 0 .475.052.581.156l.158.157v14.782l-.158.156-.158.157h-1.161c-.844 0-1.302-.07-1.372-.209-.035-.07-.106-.383-.211-.94-.598-4.736-2.286-8.079-5.065-10.029a7.9 7.9 0 0 0-2.85-1.2c-.738-.14-1.758-.14-3.06 0-3.095.417-5.61 1.584-7.545 3.499-1.723 1.706-2.866 3.934-3.43 6.685-.28 1.428-.421 3.343-.421 5.746 0 2.437.14 4.352.422 5.745.774 3.691 2.533 6.425 5.276 8.2 1.97 1.324 4.291 2.038 6.965 2.142 2.708.105 4.678-.644 5.909-2.246.317-.383.545-.783.686-1.201l.105-.418.053-2.612v-2.663l-.105-.105a3.98 3.98 0 0 0-.422-.157c-.422-.104-1.865-.156-4.327-.156h-1.741V22.58h.633l4.802.104c2.778.035 5.135.035 7.07 0l3.324-.104h.422v2.925h-1.425c-1.196.035-1.882.139-2.058.313l-.158.105v10.603l-.158.156c-.176.174-.493.14-.95-.104-1.266-.766-2.216-1.428-2.849-1.985l-.369-.366-.264.314c-.563.731-1.372 1.358-2.427 1.88-3.06 1.602-6.578 1.985-10.553 1.15-.21-.036-.404-.07-.58-.105-3.2-.836-5.997-2.42-8.39-4.753a18.907 18.907 0 0 1-3.534-4.806c-2.462-4.805-2.885-9.75-1.266-14.833.351-1.01.773-2.003 1.266-2.978 2.075-4.074 5.206-6.981 9.391-8.722a15.39 15.39 0 0 1 2.533-.836c1.02-.244 1.97-.4 2.85-.47ZM134.991.068c4.326-.383 8.283.853 11.871 3.708.774.592 1.688 1.498 2.744 2.716 2.321 2.856 3.746 6.303 4.273 10.342.141 1.15.159 2.507.053 4.074a.983.983 0 0 0-.053.314c-.492 4.109-1.969 7.625-4.432 10.55-3.13 3.657-6.964 5.711-11.502 6.164a18.492 18.492 0 0 1-4.168-.157c-4.467-.731-8.143-2.96-11.027-6.686-1.9-2.507-3.113-5.345-3.641-8.513-.176-.87-.264-2.037-.264-3.5 0-1.393.106-2.629.317-3.708.387-2.298 1.143-4.405 2.269-6.32a25.358 25.358 0 0 1 1.741-2.56c1.09-1.253 2.022-2.158 2.796-2.716 2.638-2.159 5.646-3.395 9.023-3.708Zm2.901 2.664c-1.02-.105-1.846-.122-2.479-.052-3.201.383-5.699 2.054-7.493 5.014-.211.348-.404.714-.58 1.097-.879 1.81-1.442 4.056-1.688 6.737-.141 1.184-.159 2.908-.053 5.171.035.279.053.488.053.627.246 2.925.809 5.38 1.688 7.365 1.548 3.447 3.887 5.571 7.017 6.372.141.035.299.07.475.105a7.81 7.81 0 0 0 3.113 0c3.201-.627 5.628-2.647 7.281-6.06l.211-.417c.88-1.985 1.443-4.44 1.689-7.365.141-1.253.158-2.994.053-5.223a4.149 4.149 0 0 1-.053-.575c-.246-3.203-1.003-5.815-2.269-7.834-1.688-2.786-4.01-4.44-6.965-4.962Z"/></svg>